PathFileType	4	(X/Y/Z)	D:\TRACE\spotREDO_2-26-24\spot_Both_Motion_3_10-v60.trc
DataRate	CameraRate	NumFrames	NumMarkers	Units	OrigDataRate	OrigDataStartFrame	OrigNumFrames
100.00	100.00	      34	9	mm	100.00	4376	      7000
Frame#	Time	front left toe			Front right toe			aft left toe			aft right toe			Arm			FL body			FR body			AL Body			AR Body			
		X1	Y1	Z1	X2	Y2	Z2	X3	Y3	Z3	X4	Y4	Z4	X5	Y5	Z5	X6	Y6	Z6	X7	Y7	Z7	X8	Y8	Z8	X9	Y9	Z9	

4376	43.750	-169.16612	-39.33792	-505.45947	244.80699	-43.26568	-521.80444	-145.40709	34.18193	151.34106	235.37376	37.91975	124.13452	71.70632	589.89728	-815.33099	-47.55598	462.57571	-548.31616	108.22824	465.78723	-550.97180	-38.07563	599.80530	325.30115	108.89341	593.48804	326.07080	
4377	43.760	-169.06651	-39.31546	-505.39609	244.85490	-42.91703	-521.68390	-145.29808	34.02074	151.39871	235.39679	37.87119	124.22671	71.30924	589.81165	-815.63843	-47.94979	461.93887	-548.67053	107.31373	465.52319	-551.85950	-38.93568	599.68878	324.86011	108.10873	593.44415	325.80344	
4378	43.770	-169.08636	-39.04853	-505.20331	244.75346	-42.36437	-521.59991	-145.07845	33.82751	151.52562	235.46176	37.77100	124.28814	70.70510	589.68701	-815.77051	-48.49174	461.32489	-549.09204	107.02218	464.75339	-551.85809	-39.44131	599.52393	324.41241	107.40611	593.30450	325.46692	
4379	43.780	-169.12442	-38.67986	-505.04620	244.73645	-41.95813	-521.41132	-145.05089	33.78819	151.60939	235.44525	37.55788	124.35059	70.07216	589.85706	-816.18396	-49.18115	460.97693	-549.32562	106.61574	464.41516	-552.01697	-39.93928	599.21295	324.14474	107.21419	593.32532	325.50449	
4380	43.790	-169.08334	-38.35791	-504.85907	244.77167	-41.71379	-521.50122	-144.91414	33.70352	151.70221	235.54158	37.30986	124.32393	69.67859	589.94885	-816.47461	-49.81112	460.54428	-549.58752	105.86385	463.98575	-552.51953	-40.48149	598.78290	323.68927	106.41064	592.91058	324.49512	
4381	43.800	-169.07529	-38.25775	-504.70465	244.82333	-41.36926	-521.57764	-144.68152	33.57857	151.93462	235.71411	37.18362	124.27348	69.59837	589.96899	-816.46631	-50.38309	459.84021	-550.15106	105.03719	463.92480	-553.55371	-40.62985	598.01483	323.04568	106.26369	592.59698	324.15421	
4382	43.810	-169.07024	-38.18195	-504.56540	244.92264	-40.98032	-521.52991	-144.42764	33.41658	152.17644	235.70232	37.11781	124.28973	69.54865	589.94183	-816.47595	-50.99166	459.36328	-550.25507	104.27494	463.55209	-554.00470	-40.82922	597.79150	322.61307	106.19813	592.26648	323.56119	
4383	43.820	-169.07613	-38.01902	-504.44901	244.91580	-40.58326	-521.47388	-144.17566	33.27299	152.19810	236.02388	37.22361	124.39853	69.53888	590.01447	-816.47180	-51.68786	458.77603	-550.79956	103.76584	462.96582	-554.09015	-40.89202	597.82678	322.42181	106.04486	591.93060	322.88470	
4384	43.830	-169.04977	-37.76997	-504.34747	244.98061	-40.04258	-521.19403	-144.08154	33.13726	152.37486	236.18391	37.20847	124.53048	69.61496	590.02686	-816.43854	-52.21897	458.42505	-551.09760	103.03530	462.82629	-554.55359	-40.72052	597.33551	322.21301	106.38139	591.64679	322.51779	
4385	43.840	-169.04460	-37.32948	-504.12314	245.10107	-39.16689	-520.66949	-144.02824	33.07735	152.55547	236.13568	37.05181	124.56081	69.95047	590.13989	-816.19073	-52.78251	458.36606	-551.54352	102.54392	462.85641	-555.42731	-40.58408	596.89734	321.89679	106.43297	591.38788	322.21124	
4386	43.850	-168.91035	-37.02227	-504.00748	245.01234	-38.94949	-520.87286	-143.98830	33.12566	152.63005	236.16039	37.03474	124.64585	70.55784	590.28625	-815.65863	-53.37246	458.27213	-551.82538	102.02099	462.76083	-556.07672	-40.97813	595.99817	321.13962	106.24720	590.97418	321.71249	
4387	43.860	-168.93103	-36.71901	-503.91534	245.02438	-38.63747	-520.86902	-143.94382	32.99121	152.65338	236.30600	36.89662	124.76251	71.19645	590.33655	-815.40417	-53.47960	457.98801	-552.28571	101.95499	462.39081	-555.97070	-41.16194	595.67444	320.78113	105.89852	590.61511	321.14240	
4388	43.870	-168.89671	-36.33160	-503.95801	245.00090	-38.32552	-520.78375	-143.95616	32.87019	152.67223	236.33760	36.83145	124.84145	71.47077	590.39154	-815.32709	-53.75343	457.97742	-552.78375	101.83789	462.37793	-556.46497	-41.20086	595.41248	320.67941	105.76344	590.03595	320.76877	
4389	43.880	-168.73447	-35.93532	-504.00235	245.08606	-38.06275	-520.77002	-143.91232	32.84161	152.69962	236.38753	36.80352	124.85866	71.62243	590.53015	-815.39636	-53.79524	458.00424	-553.08960	101.86285	462.42819	-556.68890	-41.50270	594.86993	320.40625	105.73294	589.63690	320.56686	
4390	43.890	-168.63666	-35.41821	-504.04965	245.30511	-37.67400	-520.63251	-143.90758	32.68986	152.78311	236.36198	36.78549	124.91010	71.85600	590.78613	-815.41382	-53.75087	458.25171	-553.70575	101.73605	462.86368	-557.54425	-41.87570	594.30774	319.98306	105.22478	588.94727	320.36185	
4391	43.900	-168.64238	-34.97708	-503.95480	245.82181	-36.58252	-519.80566	-143.89578	32.66514	152.88026	236.40189	36.72725	124.99245	71.89704	591.00421	-815.48401	-53.53136	458.48352	-554.12701	101.63807	463.14020	-558.17767	-42.03140	593.58533	319.37735	105.09366	588.53925	319.99323	
4392	43.910	-168.47017	-34.57097	-503.82446	245.60506	-36.60733	-519.95325	-143.83942	32.46926	153.04916	236.62114	36.73428	125.13276	71.96818	591.14081	-815.52887	-53.33430	458.76108	-554.67035	102.09227	463.11560	-557.98700	-42.51911	592.93597	318.92148	104.87292	587.94910	319.63962	
4393	43.920	-168.29018	-34.42869	-503.72519	245.57538	-36.34370	-519.85297	-143.83890	32.22263	153.13199	236.40956	36.65509	125.21952	71.76452	591.32196	-815.60339	-53.24368	458.89868	-555.13794	102.11694	463.34277	-558.34375	-42.58707	592.66858	318.88116	104.58217	587.37891	319.30652	
4394	43.930	-168.25900	-34.51601	-503.88184	245.36917	-36.90675	-520.96906	-143.85068	32.07993	153.18059	236.44429	37.05147	125.52187	71.82806	591.43707	-815.69427	-53.15828	459.44009	-555.51709	102.21458	463.98907	-558.94324	-42.86093	591.96167	318.59116	103.98808	586.73065	319.01917	
4395	43.940	-168.31056	-34.20567	-503.79285	245.40318	-36.40550	-520.92328	-143.85939	31.69854	153.37904	236.44608	36.87715	125.49745	72.04543	591.47217	-816.12640	-53.12143	460.29160	-556.00769	102.51228	464.62769	-559.11688	-42.61219	590.76111	318.29608	104.48560	585.67340	319.04404	
4396	43.950	-168.50618	-33.88009	-504.07660	245.44762	-36.09090	-520.99457	-143.80379	31.56464	153.44054	236.62476	36.69488	125.82395	71.07529	591.49170	-817.43512	-52.72503	461.56314	-556.28851	102.54292	465.86749	-559.84949	-42.65331	590.13538	318.11893	104.52061	584.76270	318.99121	
4397	43.960	-167.93816	-33.26687	-503.90918	245.57440	-35.76332	-521.00122	-143.81714	31.52707	153.60957	236.74472	36.48960	126.05164	70.25460	591.13525	-819.15363	-52.17476	462.65701	-556.67230	103.19850	466.70868	-559.97455	-42.47200	590.01263	318.43155	104.29475	583.94775	319.13135	
4398	43.970	-167.76703	-32.72404	-504.04672	245.68222	-35.55429	-520.86359	-143.75687	31.39964	153.72552	236.68103	36.46568	126.36378	68.29382	590.36530	-821.64465	-51.05569	463.83002	-556.69843	104.30799	467.29556	-559.29193	-42.48111	589.50061	318.63242	104.70735	583.27600	319.44308	
4399	43.980	-167.59207	-32.38069	-504.08237	246.18268	-35.45043	-520.66174	-143.56073	31.24326	153.83478	236.78238	36.41662	126.57230	65.42916	589.46619	-824.60632	-50.00139	464.54428	-556.64325	105.25344	468.40311	-559.71857	-42.50150	589.09125	318.85333	104.45873	582.93182	319.74747	
4400	43.990	-167.33734	-31.69016	-504.29782	246.80655	-35.18842	-520.42914	-143.47551	31.10676	153.95551	236.85695	36.50670	126.70627	61.82716	588.72565	-827.90308	-48.67257	465.29459	-556.64032	106.80200	468.81824	-558.85669	-42.58744	588.58630	318.68878	104.42445	582.58691	320.14539	
4401	44.000	-167.01817	-31.22824	-504.28073	247.12086	-34.78529	-520.27716	-143.32854	31.10536	154.00116	236.93230	36.41367	126.75979	58.68473	588.05457	-830.90417	-47.59731	465.79291	-556.60443	107.78877	469.14258	-558.69904	-41.98791	588.69061	318.82721	104.82457	582.73730	320.56088	
4402	44.010	-166.88979	-30.85064	-504.14459	247.19028	-34.59405	-520.21417	-143.28818	31.27877	154.09076	237.09798	36.33640	126.85342	55.78936	587.48364	-833.23969	-47.16925	466.50140	-556.30164	108.40235	469.50745	-558.44702	-40.81668	589.21930	319.33688	105.97922	582.73529	320.83594	
4403	44.020	-166.90656	-30.65091	-504.03705	247.19107	-34.23964	-520.23352	-143.12378	31.51469	154.11749	237.19206	36.14381	126.73286	53.79060	587.03003	-835.34705	-47.18201	466.84753	-556.07092	108.56729	469.83350	-558.43909	-39.59865	589.50232	319.57034	107.45481	582.88525	320.99826	
4404	44.030	-167.23398	-30.62134	-503.83524	246.85030	-33.85519	-520.38605	-143.05008	31.85566	154.27271	237.39844	35.87676	126.57178	52.97458	586.67145	-837.08203	-47.47783	467.01123	-555.84900	107.91341	470.11542	-558.61755	-37.64168	589.82281	319.89639	109.57281	583.03174	320.64011	
4405	44.040	-167.48264	-30.61638	-503.54822	246.73715	-33.28947	-520.43695	-142.75056	32.01004	154.29276	237.97015	35.89993	126.80832	53.14592	586.64063	-838.02643	-48.38800	467.18988	-555.42651	107.02664	470.20862	-558.84271	-35.69883	589.66132	319.94360	111.57782	583.14221	320.22681	
4406	44.050	-167.70345	-30.59550	-503.20557	246.27434	-32.76375	-520.84686	-142.32867	32.21693	154.38765	238.45049	35.49746	126.79863	54.66895	586.65082	-838.79987	-49.32602	467.07520	-555.00604	106.26704	470.16687	-558.91071	-33.02853	589.97217	320.28714	113.59975	583.44733	320.06851	
4407	44.060	-167.77692	-30.43116	-502.92712	246.13414	-32.34099	-520.90485	-141.74808	32.30806	154.53351	238.59177	34.99943	126.56817	57.08691	586.78174	-839.32916	-50.08262	467.30151	-554.74530	105.09985	470.30334	-559.25403	-30.96181	590.13519	320.53384	116.19682	583.57727	320.03323	
4408	44.070	-167.89091	-30.16724	-502.66089	245.94133	-31.91733	-520.95990	-141.42206	32.43276	154.68190	238.92009	34.80902	126.46217	60.18970	587.24475	-838.78265	-50.90716	467.68903	-554.36481	104.30214	470.74496	-559.94055	-28.95210	590.26880	320.71823	118.15080	583.49347	319.68561	
4409	44.080	-167.87968	-29.90751	-502.55170	245.88565	-31.51475	-520.92938	-141.14445	32.43419	154.78482	239.16553	34.74601	126.58035	63.01834	587.56305	-838.47943	-51.06773	468.01566	-554.30591	104.32183	470.89975	-559.94092	-27.78187	590.29675	320.87668	119.46001	583.44562	319.67587	
